<?xml version="1.0" standalone="no"?>
<!DOCTYPE svg PUBLIC "-//W3C//DTD SVG 20010904//EN"
 "http://www.w3.org/TR/2001/REC-SVG-20010904/DTD/svg10.dtd">
<svg version="1.0" xmlns="http://www.w3.org/2000/svg"
 width="672.000000pt" height="672.000000pt" viewBox="0 0 672.000000 672.000000"
 preserveAspectRatio="xMidYMid meet">
<metadata>
Created by potrace 1.11, written by Peter Selinger 2001-2013
</metadata>
<g transform="translate(0.000000,672.000000) scale(0.100000,-0.100000)"
fill="#000000" stroke="none">
<path d="M0 3387 l0 -3174 3300 0 3300 0 0 46 c1 60 1 6237 0 6274 l0 27
-3300 0 -3300 0 0 -3173z m5710 2672 c0 -5 -121 -123 -440 -429 -37 -36 -152
-146 -255 -245 -103 -99 -219 -211 -258 -248 -40 -38 -97 -93 -128 -122 l-55
-54 -80 0 c-43 0 -83 0 -89 -1 -5 -2 -14 -1 -20 0 -11 3 -297 2 -305 -1 -3 -1
-9 0 -15 1 -5 1 -466 3 -1024 3 l-1014 0 -75 71 c-41 39 -109 105 -152 146
-43 41 -139 134 -214 205 -75 72 -185 177 -244 235 -60 58 -186 179 -280 269
-95 91 -172 167 -172 170 0 3 1085 6 2410 6 1326 0 2410 -3 2410 -6z m-5145
-391 c24 -24 130 -126 236 -228 207 -199 227 -218 521 -501 106 -102 226 -218
267 -257 l74 -70 0 -1225 0 -1225 -66 -64 c-36 -34 -136 -130 -222 -213 -86
-82 -194 -186 -239 -230 -46 -44 -177 -170 -291 -280 -115 -110 -233 -224
-262 -253 -30 -28 -57 -52 -61 -52 -4 0 -7 1044 -7 2320 0 1276 1 2320 4 2320
2 0 23 -19 46 -42z m5521 -2278 c0 -1276 -3 -2320 -6 -2320 -4 0 -43 35 -87
78 -44 42 -162 156 -263 252 -100 96 -219 211 -265 255 -45 44 -158 152 -250
240 -283 271 -275 263 -275 298 -1 18 -1 569 -1 1224 l0 1193 64 62 c35 35
149 144 252 243 103 99 228 220 279 268 50 49 167 161 260 250 92 89 195 188
228 220 32 31 60 57 62 57 1 0 2 -1044 2 -2320z m-1661 7 c0 -588 -3 -1074 -7
-1080 -5 -8 -323 -11 -1122 -11 -1109 -1 -1116 -1 -1117 19 -4 107 -1 2124 4
2132 4 6 416 9 1123 9 l1118 -1 1 -1068z m80 -1587 l71 0 99 -96 c269 -258
464 -446 529 -507 39 -38 156 -151 260 -250 103 -100 204 -197 223 -214 l36
-33 -49 0 c-487 -4 -4778 0 -4782 5 -4 3 -1 10 6 14 7 4 68 61 135 127 68 65
217 209 331 319 115 110 237 227 271 260 381 366 385 370 423 375 28 4 1336 4
2447 0z"/>
</g>
</svg>
